<?xml version="1.0" standalone="no"?>
<!DOCTYPE svg PUBLIC "-//W3C//DTD SVG 20010904//EN"
 "http://www.w3.org/TR/2001/REC-SVG-20010904/DTD/svg10.dtd">
<svg version="1.0" xmlns="http://www.w3.org/2000/svg"
 width="571.000000pt" height="571.000000pt" viewBox="0 0 571.000000 571.000000"
 preserveAspectRatio="xMidYMid meet">
<metadata>
Created by potrace 1.14, written by Peter Selinger 2001-2017
</metadata>
<g transform="translate(0.000000,571.000000) scale(0.100000,-0.100000)"
fill="#000000" stroke="none">
<path d="M2995 5674 c-210 -44 -444 -158 -502 -243 -14 -20 -59 -90 -100 -156
-42 -66 -107 -154 -144 -197 -38 -42 -69 -84 -69 -93 0 -9 16 -64 36 -123 52
-152 49 -173 -54 -387 -105 -221 -124 -278 -124 -380 -1 -93 14 -140 70 -222
22 -32 45 -76 53 -98 7 -22 20 -48 28 -58 17 -21 18 -20 -39 -36 -53 -16 -139
-70 -187 -120 -26 -27 -43 -63 -78 -170 l-45 -136 3 63 c2 34 2 62 0 62 -5 0
-101 -147 -161 -247 -53 -87 -63 -113 -72 -175 -11 -78 -2 -203 25 -332 8 -39
15 -74 15 -78 0 -4 19 6 43 23 l44 30 -13 67 c-7 37 -9 69 -5 72 5 3 5 30 0
60 -4 30 -8 92 -8 137 l-1 82 34 7 c20 3 65 -1 107 -10 40 -10 75 -13 79 -9 4
4 15 31 25 58 26 74 32 73 30 -4 l-2 -70 91 -39 90 -39 52 111 c85 183 105
259 105 401 0 79 -5 136 -14 163 l-14 41 44 17 c41 16 43 19 38 45 -6 25 1 36
43 81 50 52 50 52 128 60 44 4 86 8 94 9 8 1 41 1 73 1 45 -2 57 -5 57 -18 0
-12 -7 -14 -31 -9 -38 9 -69 -16 -69 -55 0 -38 60 -94 94 -88 20 4 27 0 37
-24 31 -75 142 -173 237 -208 47 -18 74 -21 157 -18 86 3 108 7 159 32 68 34
154 115 179 171 18 40 18 40 77 41 68 1 90 15 90 54 0 34 -22 53 -59 52 -26
-1 -29 3 -33 34 -2 19 -3 34 -1 34 2 0 21 -12 43 -26 42 -28 87 -27 111 2 19
23 102 18 125 -7 25 -28 67 -49 96 -49 91 1 258 175 258 270 0 14 -9 61 -20
103 l-20 77 26 62 26 61 -22 64 c-30 88 -109 265 -124 277 -28 23 -68 155 -96
319 -17 95 -30 184 -30 200 0 47 -37 137 -76 184 -27 32 -58 55 -108 79 -69
32 -195 64 -254 64 -16 0 -71 21 -123 46 -141 69 -237 102 -339 117 -14 3 -52
-2 -85 -9z m23 -750 c49 -68 88 -94 138 -94 32 0 49 5 62 21 34 41 50 42 85 9
41 -38 74 -38 122 0 21 17 46 30 55 30 18 0 130 -103 130 -119 0 -12 -102 -71
-112 -65 -4 3 -8 14 -8 24 0 25 -32 45 -98 60 -78 18 -130 1 -186 -61 -40 -45
-86 -65 -86 -39 0 23 -71 87 -110 99 -76 22 -217 -9 -227 -50 -4 -15 -11 -19
-27 -15 -11 3 -26 6 -33 6 -14 0 74 134 115 175 28 27 112 64 139 61 7 -1 25
-20 41 -42z m247 -190 c-41 -38 -18 -55 27 -20 99 75 198 24 198 -102 0 -91
-47 -143 -136 -150 -84 -7 -150 46 -156 125 -5 73 2 95 41 134 21 22 42 39 46
39 4 0 -5 -12 -20 -26z m-252 -8 c24 -16 38 -21 45 -14 16 16 45 -50 46 -102
0 -88 -63 -150 -152 -150 -46 0 -57 4 -92 36 -70 63 -74 161 -10 226 38 38
110 40 163 4z m647 -48 c39 -89 38 -174 -4 -383 -47 -233 -70 -316 -87 -324
-8 -3 -199 -5 -426 -3 l-412 3 -20 32 c-10 18 -31 82 -46 142 -14 61 -35 146
-46 191 l-20 80 35 117 c24 78 34 127 30 147 -7 34 -7 34 61 17 l50 -14 -3
-51 c-5 -68 26 -133 81 -173 32 -23 50 -29 93 -29 66 0 93 10 134 50 38 37 60
87 60 135 0 52 16 42 23 -14 8 -67 30 -105 80 -142 39 -28 47 -30 108 -27 51
3 72 9 96 28 51 41 77 97 78 164 l0 58 45 24 c25 13 50 23 56 24 6 0 22 -24
34 -52z m-120 -778 l0 -37 -311 -7 c-171 -4 -313 -5 -316 -2 -10 9 153 54 242
66 50 6 97 13 105 15 8 2 75 3 148 3 l132 0 0 -38z"/>
<path d="M3281 4664 c-28 -36 -27 -79 4 -109 46 -47 119 -25 139 42 14 45 -30
93 -84 93 -30 0 -43 -6 -59 -26z"/>
<path d="M2906 4674 c-27 -26 -38 -55 -32 -80 17 -64 106 -88 145 -38 45 57
11 134 -59 134 -22 0 -45 -7 -54 -16z"/>
<path d="M2990 4280 c0 -19 111 -50 180 -50 66 0 203 37 173 47 -6 2 -27 -4
-45 -14 -51 -27 -198 -25 -260 4 -27 12 -48 18 -48 13z"/>
<path d="M3924 3734 c5 -17 65 -281 117 -519 31 -141 22 -135 93 -67 67 65
135 104 238 137 l68 21 -101 110 c-254 274 -299 313 -388 330 -30 6 -33 5 -27
-12z"/>
<path d="M2616 3682 c-19 -38 -2 -76 36 -80 16 -2 30 -11 33 -23 16 -50 95
-25 95 31 0 32 -17 50 -47 50 -13 0 -23 4 -23 9 0 18 -31 41 -55 41 -17 0 -29
-9 -39 -28z"/>
<path d="M3654 3645 c-10 -8 -31 -15 -46 -15 -45 0 -65 -62 -30 -93 23 -21 56
-22 72 -2 7 8 23 15 36 15 50 0 70 54 34 90 -24 24 -39 25 -66 5z"/>
<path d="M2590 3565 c-30 -36 -4 -95 40 -95 23 0 50 32 50 58 0 44 -62 70 -90
37z"/>
<path d="M2702 3514 c-24 -17 -30 -62 -10 -82 7 -7 24 -12 38 -12 35 0 50 17
50 57 0 22 -6 36 -19 43 -26 13 -33 13 -59 -6z"/>
<path d="M3667 3512 c-10 -10 -17 -25 -17 -32 0 -11 -3 -11 -12 -2 -21 21 -66
14 -84 -13 -21 -33 -6 -72 31 -81 29 -7 65 18 65 45 0 12 3 12 12 3 20 -20 65
-14 82 10 21 30 20 44 -4 68 -25 25 -52 26 -73 2z"/>
<path d="M2585 3426 c-20 -30 -3 -74 32 -82 24 -6 24 -7 3 -21 -22 -16 -27
-62 -8 -81 7 -7 24 -12 38 -12 32 0 50 17 50 46 0 36 -11 54 -31 54 -23 0 -25
13 -4 30 17 14 19 43 5 71 -16 28 -65 25 -85 -5z"/>
<path d="M2726 3394 c-22 -21 -20 -57 3 -78 26 -24 62 -17 80 15 13 24 13 29
-2 53 -20 30 -57 35 -81 10z"/>
<path d="M3667 3382 c-33 -37 -11 -92 37 -92 26 0 56 29 56 53 0 23 -35 57
-58 57 -11 0 -26 -8 -35 -18z"/>
<path d="M3510 3349 c-17 -30 -8 -62 22 -78 24 -14 28 -14 47 3 23 21 28 65 9
84 -20 20 -66 15 -78 -9z"/>
<path d="M2790 3274 c-33 -62 55 -114 89 -53 13 24 13 29 -2 53 -24 36 -68 36
-87 0z"/>
<path d="M3636 3264 c-33 -33 -12 -94 32 -94 36 0 52 17 52 55 0 17 -5 36 -12
43 -17 17 -54 15 -72 -4z"/>
<path d="M3431 3256 c-7 -8 -11 -30 -9 -48 2 -25 9 -35 30 -42 49 -17 84 35
58 85 -13 23 -62 26 -79 5z"/>
<path d="M2667 3202 c-20 -22 -22 -63 -5 -80 7 -7 24 -12 38 -12 33 0 50 17
50 51 0 52 -51 77 -83 41z"/>
<path d="M2896 3198 c-20 -29 -20 -52 0 -72 16 -17 51 -21 71 -8 24 15 26 59
4 81 -27 27 -56 27 -75 -1z"/>
<path d="M3312 3175 c-25 -54 25 -102 73 -71 46 30 26 96 -29 96 -25 0 -35 -6
-44 -25z"/>
<path d="M3020 3151 c-15 -30 -12 -56 10 -76 45 -41 110 18 76 70 -21 31 -70
35 -86 6z"/>
<path d="M3152 3145 c-14 -31 -1 -71 27 -80 45 -14 85 40 61 84 -16 32 -73 29
-88 -4z"/>
<path d="M3569 3136 c-16 -35 -4 -74 26 -82 34 -8 53 1 67 30 9 20 8 30 -6 51
-23 34 -72 35 -87 1z"/>
<path d="M2742 3104 c-24 -17 -30 -62 -10 -82 7 -7 24 -12 38 -12 33 0 50 17
50 50 0 48 -40 71 -78 44z"/>
<path d="M3502 3044 c-24 -17 -30 -62 -10 -82 7 -7 24 -12 38 -12 34 0 50 17
50 55 0 24 -6 35 -25 43 -32 15 -26 15 -53 -4z"/>
<path d="M2810 2991 c-23 -56 37 -105 80 -66 40 36 18 95 -34 95 -28 0 -36 -5
-46 -29z"/>
<path d="M3396 2974 c-33 -33 -12 -94 32 -94 36 0 52 17 52 55 0 17 -5 36 -12
43 -17 17 -54 15 -72 -4z"/>
<path d="M2940 2963 c-21 -8 -30 -24 -30 -53 0 -33 17 -50 50 -50 33 0 50 17
50 51 0 44 -31 67 -70 52z"/>
<path d="M4933 2922 c32 -71 30 -171 -5 -242 -15 -30 -43 -71 -62 -91 l-35
-36 39 -22 c21 -12 48 -34 58 -48 l20 -27 21 34 c28 46 39 89 47 185 10 122
-29 247 -87 283 -15 10 -15 6 4 -36z"/>
<path d="M3286 2924 c-19 -18 -21 -65 -4 -82 7 -7 24 -12 38 -12 33 0 50 17
50 50 0 49 -52 76 -84 44z"/>
<path d="M3030 2901 c-15 -30 -12 -56 10 -76 43 -39 104 14 78 70 -14 32 -72
36 -88 6z"/>
<path d="M3162 2904 c-24 -17 -30 -62 -10 -82 13 -13 47 -16 72 -6 17 6 22 59
8 80 -13 20 -47 24 -70 8z"/>
<path d="M1595 2460 c-3 -5 -1 -10 4 -10 6 0 11 5 11 10 0 6 -2 10 -4 10 -3 0
-8 -4 -11 -10z"/>
<path d="M1609 2324 c-60 -11 -129 -37 -129 -49 0 -3 17 -13 38 -24 129 -66
466 -68 619 -5 l38 16 -47 24 c-59 30 -128 42 -129 23 -1 -8 -2 -23 -3 -34 -2
-40 -86 -64 -165 -49 -30 6 -31 8 -31 61 l0 54 -62 -2 c-35 -1 -93 -8 -129
-15z"/>
<path d="M3360 2190 c-366 -10 -752 -19 -857 -19 -147 -1 -193 -4 -193 -13 0
-32 -23 -90 -45 -117 -24 -28 -25 -33 -25 -196 l0 -168 -39 -37 c-25 -24 -60
-44 -98 -55 -32 -10 -62 -22 -67 -26 -8 -7 -67 -319 -61 -319 2 0 86 -25 187
-56 l183 -56 402 6 402 7 5 -23 c3 -13 7 -153 10 -313 l6 -290 51 -47 51 -47
-7 -127 c-6 -102 -4 -128 6 -135 37 -23 39 -14 38 195 -1 113 2 210 6 217 5 7
4 10 -1 6 -11 -6 -11 214 0 231 4 7 3 12 -1 12 -5 0 -8 58 -7 130 1 71 -2 128
-6 125 -4 -2 -2 11 4 29 l10 33 140 6 c78 4 249 7 382 7 132 0 295 3 360 6
l120 7 -41 521 -40 521 -105 1 c-58 1 -404 -7 -770 -16z"/>
<path d="M1737 711 c-49 -11 -94 -24 -100 -29 -7 -5 -36 -17 -66 -27 -40 -13
-70 -33 -112 -74 -70 -69 -82 -113 -51 -185 11 -24 18 -47 15 -50 -3 -2 4 -2
15 1 14 3 24 -2 31 -15 6 -11 31 -28 56 -38 45 -17 45 -17 28 -38 -16 -18 -16
-19 -1 -7 9 7 23 9 29 5 8 -4 9 -3 5 4 -4 7 -3 12 3 12 5 0 13 -4 16 -10 3 -5
11 -10 16 -10 6 0 7 6 3 12 -6 10 -5 10 7 1 8 -6 23 -13 34 -15 11 -1 23 -7
27 -13 5 -6 12 -5 20 3 14 14 32 16 24 3 -7 -11 188 -13 235 -2 21 5 43 4 52
-1 11 -6 19 -3 25 9 6 10 12 121 13 248 l4 229 -120 3 c-89 2 -143 -2 -208
-16z"/>
</g>
</svg>
